<svg width="40" height="40" viewBox="0 0 40 40" fill="none" xmlns="http://www.w3.org/2000/svg">
<line x1="4" y1="3.92657" x2="15.451" y2="3.92657" stroke="black" stroke-width="1.5"/>
<line x1="14.6324" y1="4" x2="14.6324" y2="36" stroke="black" stroke-width="1.5"/>
<line x1="4.75" y1="4" x2="4.75" y2="36" stroke="black" stroke-width="1.5"/>
<line x1="4" y1="35.7816" x2="15.4" y2="35.7816" stroke="black" stroke-width="1.5"/>
<line x1="5" y1="13.3154" x2="10.4902" y2="13.3154" stroke="black" stroke-width="1.5"/>
<line x1="9.75" y1="13" x2="9.75" y2="28" stroke="black" stroke-width="1.5"/>
<line x1="9" y1="28.0693" x2="15" y2="28.0693" stroke="black" stroke-width="1.5"/>
<line y1="-0.75" x2="16.6283" y2="-0.75" transform="matrix(0.999949 -0.0100827 0.00882617 0.999961 18 4.67999)" stroke="black" stroke-width="1.5"/>
<line x1="35" y1="29.6" x2="19" y2="29.6" stroke="black" stroke-width="1.5"/>
<line x1="19.15" y1="30.3283" x2="19.15" y2="10.3283" stroke="black" stroke-width="1.5"/>
<line x1="18.4" y1="9.79462" x2="33.9" y2="9.79462" stroke="black" stroke-width="1.5"/>
<line x1="34.45" y1="9.10001" x2="34.45" y2="23.1" stroke="black" stroke-width="1.5"/>
<line x1="35.2157" y1="23.1983" x2="22.1961" y2="23.1983" stroke="black" stroke-width="1.5"/>
<line x1="22.95" y1="23.4543" x2="22.95" y2="16.5803" stroke="black" stroke-width="1.5"/>
<line x1="22.196" y1="16.3333" x2="29.8823" y2="16.3333" stroke="black" stroke-width="1.5"/>
<line x1="29.14" y1="15.9097" x2="29.14" y2="19.7658" stroke="black" stroke-width="1.5"/>
<line x1="18.2745" y1="35.7816" x2="35.5294" y2="35.7816" stroke="black" stroke-width="1.5"/>
<rect x="0.5" y="0.5" width="39" height="39" stroke="black"/>
</svg>
